# xmcd
#
# Track frame offsets:
#	150
#	12300
#	30826
#	42600
#	71926
#	89549
#	102902
#	120302
#	135902
#	161025
#	177302
#	192975
#	210001
#
# Disc length: 3143 seconds
#
# Revision: 1
# Processed by: cddbd v1.5.2PL0 Copyright (c) Steve Scherf et al.
# Submitted via: audiograbber 1.83.01
#
DISCID=a70c450d
DTITLE=Dozzler and Van Merwyk - Darkest Night
DYEAR=2013
DGENRE=Blues
TTITLE0=Good Loving
TTITLE1=I can't sleep
TTITLE2=I'm gonna rock some more
TTITLE3=Ain't no Bluesman
TTITLE4=Some Cold Rainy Day
TTITLE5=Loose Lips
TTITLE6=Long Cold Winter
TTITLE7=A Million Miles
TTITLE8=Black Ace
TTITLE9=I'll try to forget
TTITLE10=Sir Wilsons Bounce
TTITLE11=It's alright
TTITLE12=Darkest Night
EXTD=
EXTT0=
EXTT1=
EXTT2=
EXTT3=
EXTT4=
EXTT5=
EXTT6=
EXTT7=
EXTT8=
EXTT9=
EXTT10=
EXTT11=
EXTT12=
PLAYORDER=
